<?xml version="1.0" encoding="UTF-8" standalone="no"?>
<!-- Created with Inkscape (http://www.inkscape.org/) -->

<svg
   xmlns:dc="http://purl.org/dc/elements/1.1/"
   xmlns:cc="http://creativecommons.org/ns#"
   xmlns:rdf="http://www.w3.org/1999/02/22-rdf-syntax-ns#"
   xmlns:svg="http://www.w3.org/2000/svg"
   xmlns="http://www.w3.org/2000/svg"
   xmlns:xlink="http://www.w3.org/1999/xlink"
   xmlns:sodipodi="http://sodipodi.sourceforge.net/DTD/sodipodi-0.dtd"
   xmlns:inkscape="http://www.inkscape.org/namespaces/inkscape"
   width="210mm"
   height="297mm"
   id="svg6784"
   version="1.1"
   inkscape:version="0.48.3.1 r9886"
   sodipodi:docname="New document 5">
  <defs
     id="defs3">
    <filter
       inkscape:collect="always"
       id="filter5138-7"
       x="-0.069989778"
       width="1.1399796"
       y="-0.3857576"
       height="1.7715153"
       color-interpolation-filters="sRGB">
      <feGaussianBlur
         inkscape:collect="always"
         stdDeviation="1.5834976"
         id="feGaussianBlur5140-1" />
    </filter>
    <radialGradient
       inkscape:collect="always"
       xlink:href="#linearGradient12592-0"
       id="radialGradient12598-6"
       cx="460.90155"
       cy="445.10938"
       fx="460.90155"
       fy="445.10938"
       r="44.218399"
       gradientUnits="userSpaceOnUse"
       gradientTransform="matrix(1.1150383,-5.8239863e-4,5.6476866e-4,1.0625073,-53.926329,-28.361689)" />
    <linearGradient
       id="linearGradient12592-0">
      <stop
         style="stop-color:#ffe5bc;stop-opacity:1"
         offset="0"
         id="stop12594-4" />
      <stop
         id="stop5064-0"
         offset="0.3387121"
         style="stop-color:#eecea4;stop-opacity:1" />
      <stop
         style="stop-color:#7f4e2d;stop-opacity:1"
         offset="1"
         id="stop12596-9" />
    </linearGradient>
    <filter
       inkscape:collect="always"
       id="filter5373-7"
       color-interpolation-filters="sRGB">
      <feGaussianBlur
         inkscape:collect="always"
         stdDeviation="0.34367606"
         id="feGaussianBlur5375-4" />
    </filter>
  </defs>
  <sodipodi:namedview
     inkscape:document-units="mm"
     id="base"
     pagecolor="#ffffff"
     bordercolor="#666666"
     borderopacity="1.0"
     inkscape:pageopacity="0.0"
     inkscape:pageshadow="2"
     inkscape:zoom="1.2526316"
     inkscape:cx="422.85714"
     inkscape:cy="708.57143"
     inkscape:current-layer="layer1"
     showgrid="false"
     inkscape:window-width="1366"
     inkscape:window-height="690"
     inkscape:window-x="0"
     inkscape:window-y="25"
     inkscape:window-maximized="1" />
  <metadata
     id="metadata4">
    <rdf:RDF>
      <cc:Work
         rdf:about="">
        <dc:format>image/svg+xml</dc:format>
        <dc:type
           rdf:resource="http://purl.org/dc/dcmitype/StillImage" />
        <dc:title></dc:title>
      </cc:Work>
    </rdf:RDF>
  </metadata>
  <g
     inkscape:label="Layer 1"
     inkscape:groupmode="layer"
     id="layer1">
    <g
       transform="matrix(3.8443689,0,0,3.8443689,-41.936613,-997.4026)"
       id="g3969-5"
       inkscape:export-filename="/home/khushal/My_2014/FOSSEE/ESIM/esim_logo.png"
       inkscape:export-xdpi="300"
       inkscape:export-ydpi="300">
      <g
         transform="translate(17.488747,-4.996785)"
         id="g10577-5">
        <g
           id="g5327-1"
           transform="translate(-281.57611,-101.29331)">
          <g
             id="g5144-6">
            <path
               sodipodi:type="arc"
               style="fill:#646464;fill-opacity:1;stroke:none;filter:url(#filter5138-7)"
               id="path12532-1"
               sodipodi:cx="474.60318"
               sodipodi:cy="487.48932"
               sodipodi:rx="27.149639"
               sodipodi:ry="4.9258838"
               d="m 501.75282,487.48932 c 0,2.72049 -12.15531,4.92588 -27.14964,4.92588 -14.99433,0 -27.14964,-2.20539 -27.14964,-4.92588 0,-2.72049 12.15531,-4.92588 27.14964,-4.92588 14.99433,0 27.14964,2.20539 27.14964,4.92588 z"
               transform="matrix(1.3670886,0,0,1.4186047,-281.96238,-201.51017)" />
            <path
               transform="matrix(1.0480213,0,0,1.1649578,-130.53204,-77.349194)"
               d="m 501.75282,487.48932 c 0,2.72049 -12.15531,4.92588 -27.14964,4.92588 -14.99433,0 -27.14964,-2.20539 -27.14964,-4.92588 0,-2.72049 12.15531,-4.92588 27.14964,-4.92588 14.99433,0 27.14964,2.20539 27.14964,4.92588 z"
               sodipodi:ry="4.9258838"
               sodipodi:rx="27.149639"
               sodipodi:cy="487.48932"
               sodipodi:cx="474.60318"
               id="path5142-3"
               style="fill:#333333;fill-opacity:1;stroke:none;filter:url(#filter5138-7)"
               sodipodi:type="arc" />
          </g>
          <path
             sodipodi:type="arc"
             style="fill:#efcfa7;fill-opacity:1;stroke:none"
             id="path12526-4"
             sodipodi:cx="466.69885"
             sodipodi:cy="445.44748"
             sodipodi:rx="44.218399"
             sodipodi:ry="44.218399"
             d="m 510.91725,445.44748 c 0,24.42115 -19.79725,44.2184 -44.2184,44.2184 -24.42114,0 -44.2184,-19.79725 -44.2184,-44.2184 0,-24.42115 19.79726,-44.2184 44.2184,-44.2184 24.42115,0 44.2184,19.79725 44.2184,44.2184 z"
             transform="matrix(1.0984456,0,0,1.0984456,-144.0039,-42.248567)" />
          <path
             transform="translate(-98.059456,1.6037761)"
             d="m 510.91725,445.44748 c 0,24.42115 -19.79725,44.2184 -44.2184,44.2184 -24.42114,0 -44.2184,-19.79725 -44.2184,-44.2184 0,-24.42115 19.79726,-44.2184 44.2184,-44.2184 24.42115,0 44.2184,19.79725 44.2184,44.2184 z"
             sodipodi:ry="44.218399"
             sodipodi:rx="44.218399"
             sodipodi:cy="445.44748"
             sodipodi:cx="466.69885"
             id="path12524-2"
             style="fill:url(#radialGradient12598-6);fill-opacity:1;stroke:none"
             sodipodi:type="arc" />
          <g
             transform="translate(-176.89116,-57.239491)"
             id="g5168-2">
            <g
               id="g5160-1"
               transform="translate(78.4051,57.54194)"
               style="stroke:#000000;stroke-opacity:1">
              <path
                 sodipodi:nodetypes="cc"
                 inkscape:connector-curvature="0"
                 id="path5150-7"
                 d="m 444.61144,418.40884 0,55.59462"
                 style="fill:none;stroke:#000000;stroke-width:1;stroke-linecap:butt;stroke-linejoin:miter;stroke-miterlimit:4;stroke-opacity:1;stroke-dasharray:none" />
              <path
                 sodipodi:nodetypes="cc"
                 inkscape:connector-curvature="0"
                 id="path5152-5"
                 d="m 420.76109,446.20615 23.99589,0"
                 style="fill:none;stroke:#000000;stroke-width:1;stroke-linecap:butt;stroke-linejoin:miter;stroke-miterlimit:4;stroke-opacity:1;stroke-dasharray:none" />
              <path
                 sodipodi:nodetypes="ccc"
                 inkscape:connector-curvature="0"
                 id="path5154-7"
                 d="m 444.66293,436.01066 c -0.3301,0.11004 27.60029,-17.01968 27.60029,-17.01968 l 0,-16.88409"
                 style="fill:none;stroke:#000000;stroke-width:1;stroke-linecap:butt;stroke-linejoin:miter;stroke-miterlimit:4;stroke-opacity:1;stroke-dasharray:none" />
              <path
                 sodipodi:nodetypes="ccc"
                 inkscape:connector-curvature="0"
                 id="path5156-0"
                 d="m 444.58041,456.7087 27.53728,17.87691 0,18.17381"
                 style="fill:none;stroke:#000000;stroke-width:1;stroke-linecap:butt;stroke-linejoin:miter;stroke-miterlimit:4;stroke-opacity:1;stroke-dasharray:none" />
            </g>
            <path
               sodipodi:nodetypes="ccccc"
               inkscape:connector-curvature="0"
               id="path5166-4"
               d="m 535.06825,522.08678 5.18716,-0.32122 5.24665,7.01933 -8.88719,-2.16528 z"
               style="fill:#000000;stroke:none" />
          </g>
          <path
             sodipodi:nodetypes="cccc"
             transform="matrix(0.89747438,-0.08048953,0.01374031,0.92382876,27.967627,61.458463)"
             inkscape:connector-curvature="0"
             id="path5310-3"
             d="m 354.03766,407.44588 c -11.43749,3.44967 -17.78129,8.94614 -22.03517,19.57744 1.7774,-3.5394 8.36192,-13.2935 20.45381,-17.40915 z"
             style="fill:#e1c7b0;fill-opacity:1;stroke:#d9bba6;stroke-width:0;stroke-linecap:round;stroke-linejoin:round;stroke-miterlimit:4;stroke-opacity:1;stroke-dasharray:none;stroke-dashoffset:0;filter:url(#filter5373-7)" />
        </g>
        <path
           style="fill:#efcfa7;fill-opacity:1;stroke:none"
           d="m 87.047666,297.18644 c -26.8253,0 -48.5625,21.7372 -48.5625,48.5625 0,26.8253 21.7372,48.5625 48.5625,48.5625 26.825304,0 48.593754,-21.7372 48.593754,-48.5625 0,-26.8253 -21.76845,-48.5625 -48.593754,-48.5625 z m 0,4.34375 c 24.421154,0 44.218754,19.7976 44.218754,44.21875 0,24.42115 -19.7976,44.21875 -44.218754,44.21875 -24.42115,0 -44.21875,-19.7976 -44.21875,-44.21875 0,-24.42115 19.7976,-44.21875 44.21875,-44.21875 z"
           id="path10541-2"
           inkscape:connector-curvature="0" />
      </g>
    </g>
  </g>
</svg>
