<?xml version="1.0" encoding="UTF-8" standalone="no"?>
<svg
   width="709.64319"
   height="163.49561"
   viewBox="0 0 709.64319 163.49561"
   fill="none"
   version="1.1"
   id="svg11"
   sodipodi:docname="logo-black.svg"
   inkscape:version="1.4.2 (ebf0e940, 2025-05-08)"
   xmlns:inkscape="http://www.inkscape.org/namespaces/inkscape"
   xmlns:sodipodi="http://sodipodi.sourceforge.net/DTD/sodipodi-0.dtd"
   xmlns="http://www.w3.org/2000/svg"
   xmlns:svg="http://www.w3.org/2000/svg">
  <defs
     id="defs11" />
  <sodipodi:namedview
     id="namedview11"
     pagecolor="#ffffff"
     bordercolor="#000000"
     borderopacity="0.25"
     inkscape:showpageshadow="2"
     inkscape:pageopacity="0.0"
     inkscape:pagecheckerboard="0"
     inkscape:deskcolor="#d1d1d1"
     inkscape:zoom="0.80062974"
     inkscape:cx="292.26993"
     inkscape:cy="264.16705"
     inkscape:window-width="1792"
     inkscape:window-height="880"
     inkscape:window-x="0"
     inkscape:window-y="25"
     inkscape:window-maximized="0"
     inkscape:current-layer="svg11" />
  <path
     d="m 338.003,54.745133 c 14.788,42.513 -7.687,88.963997 -50.199,103.752997 -42.513,14.788 -88.964,-7.687 -103.753,-50.199 C 169.263,65.786133 191.738,19.334933 234.25,4.5465328 276.763,-10.241867 323.214,12.232933 338.003,54.745133 Z"
     fill="#f39323"
     id="path1" />
  <path
     d="m 287.804,158.49813 c 13.512,-4.701 25.549,-12.875 34.9,-23.701 9.352,-10.827 15.689,-23.924 18.374,-37.975997 2.686,-14.052 1.625,-28.564 -3.075,-42.076 -4.701,-13.512 -12.875,-25.548 -23.701,-34.9001 -10.827,-9.3516 -23.925,-15.6886002 -37.976,-18.3741002 -14.052,-2.6854 -28.564,-1.62469995 -42.076,3.0756 -13.512,4.7003 -25.549,12.8745002 -34.9,23.7016002 -9.352,10.826 -15.689,23.924 -18.374,37.976 l 80.051,15.298 z"
     fill="#fdc768"
     id="path2" />
  <path
     d="m 287.804,158.49813 c 14.633,-5.09 27.511,-14.246 37.127,-26.394 9.615,-12.147 15.569,-26.784 17.163,-42.194997 1.595,-15.41 -1.236,-30.956 -8.161,-44.815 -6.925,-13.859 -17.656,-25.4571 -30.937,-33.4352 l -41.969,69.8632 z"
     fill="#c8581a"
     id="path3" />
  <path
     d="m 412,0.49513285 c 35.899,0 65,29.10100015 65,65.00000015 0,35.898997 -29.101,64.999997 -65,64.999997 h -8 v 5.5 c 0,14.083 -11.417,25.5 -25.5,25.5 -14.083,0 -25.5,-11.417 -25.5,-25.5 V 25.690133 c 0,-13.9146 11.28,-25.19500015 25.195,-25.19500015 z"
     fill="#563917"
     id="path4"
     style="fill:#000000;fill-opacity:1" />
  <path
     d="m 536,28.495133 c 0,14.083 -11.417,25.5 -25.5,25.5 -14.083,0 -25.5,-11.417 -25.5,-25.5 0,-14.0833 11.417,-25.5000002 25.5,-25.5000002 14.083,0 25.5,11.4167002 25.5,25.5000002 z"
     fill="#563917"
     id="path6"
     style="fill:#000000;fill-opacity:1" />
  <path
     d="m 485,90.495133 c 0,-14.083 11.417,-25.5 25.5,-25.5 v 0 c 14.083,0 25.5,11.417 25.5,25.5 v 42.999997 c 0,14.083 -11.417,25.5 -25.5,25.5 v 0 c -14.083,0 -25.5,-11.417 -25.5,-25.5 z"
     fill="#563917"
     id="path8"
     style="fill:#000000;fill-opacity:1" />
  <path
     d="m 160,80.495133 c 4.418,0 8.043,3.592 7.581,7.986 -1.569,14.894997 -7.504,29.130997 -17.206,41.043997 -11.425,14.029 -27.424,24.039 -45.479,28.455 -18.0552,4.417 -37.1397,2.988 -54.2482,-4.061 -17.1086,-7.049 -31.2692,-19.318 -40.2518,-34.874 -8.9825804,-15.556 -12.2768504,-33.515997 -9.3640004,-51.050997 2.91286,-17.535 11.8673004,-33.649 25.4533004,-45.8049 13.586,-12.1556 31.0315,-19.6621002 49.5892,-21.33710015 15.7405,-1.4208 31.5225,1.42219995 45.5575,8.12029995 4.112,1.9626002 5.249,7.1309002 2.723,10.9237002 l -32.0744,48.165 c -3.5406,5.317 0.2709,12.434 6.6586,12.434 z"
     fill="#563917"
     id="path10"
     style="fill:#000000;fill-opacity:1" />
  <path
     d="m 702,81.995133 c 4.418,0 8.041,-3.59 7.608,-7.988 -1.5,-15.234 -7.269,-29.797 -16.72,-41.976 -11.092,-14.294 -26.624,-24.4907002 -44.15,-28.9833002 -17.526,-4.4927 -36.048,-3.02599995 -52.649,4.169 -16.6,7.1950002 -30.334,19.7093002 -39.038,35.5703002 -8.704,15.861 -11.883,34.168 -9.035,52.035 2.847,17.866997 11.559,34.277997 24.762,46.647997 13.203,12.37 30.147,19.995 48.161,21.674 15.35,1.43 30.733,-1.527 44.389,-8.444 3.941,-1.997 5.024,-6.981 2.651,-10.708 L 636.33,94.292133 c -3.391,-5.326 0.435,-12.297 6.749,-12.297 z"
     fill="#563917"
     id="path11"
     style="fill:#000000;fill-opacity:1" />
</svg>
