<?xml version="1.0" encoding="UTF-8"?>
<svg id="Layer_1" xmlns="http://www.w3.org/2000/svg" version="1.1" viewBox="0 0 549.39 96.57">
  <!-- Generator: Adobe Illustrator 30.2.1, SVG Export Plug-In . SVG Version: 2.1.1 Build 1)  -->
  <defs>
    <style>
      .st0 {
        fill: #010101;
      }

      .st1 {
        fill: #3c60ad;
      }
    </style>
  </defs>
  <g>
    <path class="st0" d="M122.48,3.54c-2.51-1.44-5.51-2.16-9-2.16s-6.5.72-9,2.16c-2.51,1.44-4.43,3.44-5.78,6.02-1.35,2.58-2.03,5.58-2.03,9s.67,6.4,2.03,8.98c1.35,2.58,3.28,4.59,5.78,6.02,2.51,1.44,5.51,2.16,9,2.16s6.5-.72,9-2.16c2.51-1.44,4.43-3.44,5.78-6.02s2.03-5.57,2.03-8.98-.68-6.42-2.03-9c-1.34-2.58-3.27-4.59-5.78-6.02ZM118.8,23.3c-.47,1.39-1.14,2.47-2.03,3.25s-1.96,1.17-3.23,1.17-2.42-.39-3.33-1.17-1.59-1.86-2.06-3.25-.7-2.99-.7-4.81.23-3.47.7-4.85c.47-1.39,1.16-2.47,2.06-3.25.9-.78,2.01-1.17,3.33-1.17s2.35.39,3.23,1.17c.88.78,1.56,1.86,2.03,3.25s.7,3,.7,4.85-.23,3.43-.7,4.81Z"/>
    <path class="st0" d="M158.79,3.2c-2.01-1.21-4.18-1.82-6.49-1.82-1.75,0-3.25.3-4.49.9-1.25.6-2.27,1.37-3.08,2.31-.8.94-1.42,1.91-1.85,2.92h-.33V1.81h-10.48v45.75h10.59v-17.87h.22c.45,1.03,1.09,1.99,1.92,2.88.83.9,1.86,1.62,3.09,2.17s2.68.82,4.35.82c2.46,0,4.69-.64,6.7-1.91s3.62-3.18,4.81-5.72,1.79-5.7,1.79-9.47-.62-7.13-1.86-9.66c-1.25-2.51-2.88-4.39-4.89-5.6ZM153.96,23.13c-.47,1.33-1.16,2.36-2.07,3.09s-2.01,1.09-3.31,1.09-2.39-.36-3.3-1.09c-.92-.73-1.62-1.76-2.1-3.09-.48-1.33-.73-2.89-.73-4.68s.24-3.39.73-4.7c.48-1.31,1.18-2.33,2.09-3.03s2.01-1.06,3.31-1.06,2.42.36,3.33,1.08c.9.72,1.59,1.74,2.06,3.05s.7,2.87.7,4.66-.24,3.35-.71,4.68Z"/>
    <path class="st0" d="M173.99,33.65c2.52,1.38,5.52,2.07,9,2.07,2.9,0,5.46-.44,7.67-1.33,2.21-.89,4-2.14,5.36-3.75,1.37-1.61,2.25-3.51,2.65-5.69l-9.73-.28c-.27.74-.69,1.36-1.24,1.86-.55.51-1.21.89-1.97,1.15-.77.26-1.62.39-2.56.39-1.36,0-2.53-.28-3.51-.84s-1.74-1.35-2.27-2.37-.8-2.21-.8-3.56v-.28h22.18v-2.64c0-2.73-.4-5.15-1.19-7.27-.79-2.12-1.91-3.9-3.34-5.34s-3.13-2.53-5.09-3.27c-1.96-.74-4.13-1.1-6.5-1.1-3.35,0-6.26.72-8.73,2.16s-4.38,3.44-5.74,6.02c-1.36,2.58-2.04,5.59-2.04,9.02s.68,6.59,2.03,9.15c1.37,2.55,3.3,4.52,5.82,5.9ZM177.47,11.96c.55-.9,1.29-1.62,2.23-2.14.94-.53,2-.79,3.18-.79s2.21.25,3.11.75,1.61,1.19,2.13,2.07.79,1.88.8,3.01h-12.31c.06-1.07.34-2.04.86-2.9Z"/>
    <path class="st0" d="M211.16,16.11c0-1.27.25-2.35.7-3.25s1.1-1.58,1.95-2.07c.84-.48,1.82-.73,2.94-.73,1.67,0,2.99.52,3.93,1.56.95,1.04,1.41,2.48,1.4,4.33v19.13h10.59V13.88c0-2.5-.46-4.68-1.42-6.55-.96-1.87-2.3-3.33-4.03-4.38s-3.76-1.57-6.1-1.57c-2.46,0-4.57.58-6.35,1.74-1.78,1.16-3.03,2.76-3.77,4.8h-.37V1.82h-10.07v33.27h10.59v-18.98h.01Z"/>
    <path class="st0" d="M117.94,64.42l-6.41-1.21c-1.4-.29-2.37-.67-2.91-1.15-.54-.48-.81-1.04-.79-1.69-.01-.84.41-1.5,1.27-1.99.86-.49,1.9-.74,3.13-.74.94,0,1.77.16,2.48.47s1.3.74,1.74,1.28c.45.54.72,1.16.82,1.85l9.73-.26c-.27-3.29-1.71-5.88-4.31-7.77-2.6-1.88-6.15-2.83-10.66-2.83-3,0-5.61.42-7.82,1.26s-3.91,2.05-5.11,3.63-1.79,3.48-1.78,5.71c-.01,2.54.79,4.63,2.43,6.27,1.63,1.64,4.12,2.76,7.45,3.37l5.81,1.1c1.39.26,2.4.62,3.05,1.07.65.46.98,1.06,1,1.81-.01.84-.45,1.51-1.3,2.01s-1.96.76-3.31.76c-1.5,0-2.74-.32-3.7-.95-.97-.64-1.57-1.56-1.8-2.77l-10.46.26c.39,3.29,1.95,5.92,4.69,7.87,2.74,1.96,6.48,2.94,11.23,2.94,2.97,0,5.62-.47,7.93-1.4s4.13-2.24,5.47-3.93c1.34-1.69,2.01-3.67,2.03-5.96-.01-2.43-.83-4.38-2.46-5.85-1.64-1.47-4.11-2.53-7.44-3.16Z"/>
    <path class="st0" d="M158.52,52.2c-2.01-1.21-4.18-1.82-6.49-1.82-1.75,0-3.25.3-4.49.9-1.25.6-2.27,1.37-3.08,2.31-.8.94-1.42,1.91-1.85,2.92h-.33v-5.7h-10.48v45.75h10.59v-17.87h.22c.45,1.03,1.09,1.99,1.92,2.88.83.9,1.86,1.62,3.09,2.17,1.23.55,2.68.82,4.35.82,2.46,0,4.69-.64,6.7-1.91,2.01-1.27,3.62-3.18,4.81-5.72s1.79-5.7,1.79-9.47-.62-7.13-1.86-9.66c-1.25-2.51-2.88-4.39-4.89-5.6ZM153.69,72.13c-.47,1.33-1.16,2.36-2.07,3.09-.91.73-2.01,1.09-3.31,1.09s-2.39-.36-3.3-1.09c-.92-.73-1.62-1.76-2.1-3.09-.48-1.33-.73-2.89-.73-4.68s.24-3.39.73-4.7c.48-1.31,1.18-2.33,2.09-3.03s2.01-1.06,3.31-1.06,2.42.36,3.33,1.08c.9.72,1.59,1.74,2.06,3.05.47,1.31.7,2.87.7,4.66s-.24,3.35-.71,4.68Z"/>
    <path class="st0" d="M196.43,54.76c-1.43-1.44-3.13-2.53-5.09-3.27-1.96-.74-4.13-1.1-6.5-1.1-3.35,0-6.26.72-8.73,2.16s-4.38,3.44-5.74,6.02-2.04,5.59-2.04,9.02.68,6.59,2.03,9.15c1.35,2.56,3.29,4.53,5.81,5.91s5.52,2.07,9,2.07c2.9,0,5.46-.44,7.67-1.33,2.21-.89,4-2.14,5.36-3.75,1.37-1.61,2.25-3.51,2.65-5.69l-9.73-.28c-.27.74-.69,1.36-1.24,1.86-.55.51-1.21.89-1.97,1.15-.77.26-1.62.39-2.56.39-1.36,0-2.53-.28-3.51-.84s-1.74-1.35-2.27-2.37-.8-2.21-.8-3.56v-.28h22.18v-2.64c0-2.73-.4-5.15-1.19-7.27-.79-2.13-1.9-3.91-3.33-5.35ZM178.79,63.86c.05-1.07.33-2.04.85-2.89.55-.9,1.29-1.62,2.23-2.14.94-.53,2-.79,3.18-.79s2.21.25,3.11.75,1.61,1.19,2.13,2.07.79,1.88.8,3.01h-12.3Z"/>
    <path class="st0" d="M230.26,53.3c-1.33-.95-2.89-1.67-4.68-2.17-1.79-.5-3.75-.75-5.87-.75-2.97,0-5.52.46-7.64,1.38-2.12.92-3.78,2.17-4.98,3.77s-1.95,3.4-2.24,5.43l9.77.35c.23-1.07.77-1.91,1.62-2.51.85-.61,1.98-.91,3.38-.91,1.3,0,2.33.3,3.1.91s1.15,1.47,1.15,2.58v.11c0,.68-.26,1.2-.79,1.57s-1.37.65-2.52.84-2.68.38-4.57.55c-1.69.14-3.28.42-4.77.83s-2.8,1.01-3.94,1.81c-1.14.79-2.04,1.83-2.69,3.1-.65,1.27-.97,2.83-.97,4.68,0,2.2.47,4.02,1.42,5.47.95,1.45,2.24,2.53,3.88,3.25,1.64.71,3.52,1.07,5.64,1.07,1.54,0,2.94-.19,4.17-.58s2.31-.98,3.23-1.75,1.67-1.73,2.26-2.86h.26v4.64h9.96v-22.64c0-1.76-.37-3.33-1.09-4.7-.73-1.37-1.76-2.53-3.09-3.47ZM223.94,72.26c0,1.08-.27,2.03-.82,2.85s-1.28,1.46-2.2,1.92-1.95.69-3.09.69c-1.21,0-2.21-.29-3-.87s-1.18-1.42-1.18-2.51c0-.72.18-1.35.55-1.87.37-.53.9-.96,1.6-1.29.7-.33,1.55-.58,2.55-.74.49-.07,1-.15,1.54-.24.53-.09,1.05-.19,1.56-.3.5-.12.97-.24,1.4-.37.43-.13.79-.27,1.09-.43v3.16Z"/>
    <polygon class="st0" points="272.1 50.82 260.1 50.82 250.75 62.73 250.27 62.73 250.27 39.72 239.68 39.72 239.68 84.09 250.27 84.09 250.27 74.1 252.41 71.5 260.34 84.09 272.58 84.09 260.29 65.32 272.1 50.82"/>
    <path class="st0" d="M302.11,67.58c-1.62-1.47-4.1-2.53-7.42-3.16l-6.41-1.21c-1.4-.29-2.37-.67-2.91-1.15-.54-.48-.81-1.04-.79-1.69-.01-.84.41-1.5,1.27-1.99s1.9-.74,3.13-.74c.94,0,1.77.16,2.48.47s1.3.74,1.74,1.28c.45.54.72,1.16.82,1.85l9.73-.26c-.27-3.29-1.71-5.88-4.31-7.77-2.6-1.88-6.15-2.83-10.66-2.83-3,0-5.61.42-7.82,1.26-2.21.84-3.91,2.05-5.11,3.63-1.2,1.58-1.79,3.48-1.78,5.71-.01,2.54.79,4.63,2.43,6.27,1.63,1.64,4.12,2.76,7.45,3.37l5.81,1.1c1.39.26,2.4.62,3.05,1.07.65.46.98,1.06,1,1.81-.01.84-.45,1.51-1.3,2.01-.85.51-1.96.76-3.31.76-1.5,0-2.74-.32-3.7-.95-.97-.64-1.57-1.56-1.8-2.77l-10.46.26c.39,3.29,1.95,5.92,4.69,7.87,2.74,1.96,6.48,2.94,11.23,2.94,2.98,0,5.62-.47,7.93-1.4s4.13-2.24,5.47-3.93,2.01-3.67,2.03-5.96c-.04-2.43-.86-4.38-2.48-5.85Z"/>
    <path class="st0" d="M48.13,0C24.43.13,5,19.43,5,43.26c0,9.71,3.25,19.13,9.28,26.79L.82,82.21c-1.69,1.52-.6,4.31,1.66,4.31h45.65c23.84,0,43.13-19.26,43.26-43.13,0-11.47-4.41-22.34-12.66-30.6C70.64,4.57,59.73.13,48.13,0ZM48.13,79.89h-.13l-34.74-.13,10.31-9.28-2.22-2.49c-6.17-6.76-9.71-15.61-9.71-24.86C11.64,23.11,28.12,6.8,48.14,6.8c9.85,0,19,3.81,25.89,10.74,6.93,6.93,10.74,16.18,10.61,25.89.12,20.15-16.36,36.46-36.51,36.46Z"/>
    <circle class="st0" cx="35.33" cy="44.22" r="3.51"/>
    <circle class="st0" cx="46.84" cy="44.22" r="3.51"/>
    <circle class="st0" cx="58.34" cy="44.22" r="3.51"/>
  </g>
  <g>
    <path class="st1" d="M332.52,46l-11.72,43.55h-8.3l11.72-43.55h8.3Z"/>
    <path class="st1" d="M347.49,84.58c-2.47,0-4.66-.35-6.56-1.05-1.9-.7-3.43-1.7-4.61-2.99-1.18-1.29-1.93-2.83-2.23-4.63l9.08-1.32c.33,1.07.85,1.9,1.59,2.48.73.58,1.79.87,3.17.87.96,0,1.71-.15,2.25-.44s.81-.72.81-1.27c0-.52-.25-.94-.76-1.25-.5-.31-1.29-.56-2.37-.76l-4.83-.88c-2.77-.5-4.84-1.43-6.23-2.77-1.38-1.34-2.08-3.09-2.08-5.24,0-1.9.51-3.52,1.53-4.83,1.02-1.32,2.47-2.32,4.35-3.02,1.88-.69,4.12-1.04,6.73-1.04,2.41,0,4.52.31,6.32.94,1.81.63,3.26,1.53,4.36,2.7,1.1,1.17,1.79,2.59,2.06,4.25l-8.64,1.25c-.21-.89-.68-1.55-1.39-1.96-.72-.42-1.55-.62-2.51-.62-.85,0-1.56.15-2.15.45-.59.3-.88.74-.88,1.31,0,.41.17.79.53,1.15.35.36,1.04.63,2.06.81l5.57.98c2.78.49,4.86,1.33,6.24,2.54,1.38,1.21,2.06,2.82,2.06,4.83s-.58,3.64-1.75,5.07c-1.16,1.42-2.75,2.52-4.77,3.29-2.02.77-4.33,1.16-6.93,1.16Z"/>
    <path class="st1" d="M374.22,84.43c-1.92,0-3.6-.44-5.03-1.32-1.43-.88-2.54-2.09-3.32-3.64-.78-1.55-1.17-3.31-1.17-5.3v-17.38h9.81v15.33c0,1.35.34,2.41,1.03,3.19.68.77,1.64,1.16,2.88,1.16.81,0,1.51-.17,2.1-.53.59-.35,1.04-.85,1.37-1.5.33-.65.49-1.42.49-2.32v-15.33h9.81v27.29h-9.2l-.2-6.98h.29c-.62,2.07-1.62,3.8-3.01,5.21-1.39,1.41-3.34,2.11-5.85,2.11Z"/>
    <path class="st1" d="M414.7,84.43c-1.27,0-2.4-.21-3.41-.63-1-.42-1.85-1-2.55-1.72-.7-.72-1.24-1.55-1.61-2.48h-.24v4.49h-9.72v-36.38h9.81v13.87h.15c.36-.93.88-1.78,1.56-2.56s1.53-1.4,2.55-1.87c1.02-.46,2.2-.7,3.55-.7,1.81,0,3.52.48,5.14,1.44,1.62.96,2.94,2.47,3.97,4.53,1.03,2.06,1.54,4.74,1.54,8.04s-.49,5.75-1.46,7.81c-.98,2.07-2.28,3.61-3.91,4.63-1.63,1.02-3.42,1.53-5.37,1.53ZM411.09,76.91c.91,0,1.68-.26,2.31-.77.63-.51,1.11-1.25,1.44-2.22.33-.97.5-2.12.5-3.46s-.17-2.51-.5-3.48c-.33-.97-.81-1.71-1.44-2.23-.63-.52-1.4-.78-2.31-.78s-1.67.26-2.32.78c-.65.52-1.15,1.27-1.5,2.23-.35.97-.53,2.13-.53,3.48s.17,2.46.53,3.42c.35.96.85,1.71,1.5,2.23.65.53,1.42.79,2.32.79Z"/>
    <path class="st1" d="M445.41,56.8v7.13h-17.97v-7.13h17.97ZM430.91,50.3h9.81v25.02c0,.57.15,1,.44,1.28.29.28.76.43,1.42.43.29,0,.72-.04,1.28-.11.56-.07.93-.14,1.11-.21l1.17,7.01c-1.12.31-2.18.52-3.17.62-.99.11-1.93.16-2.81.16-3.06,0-5.37-.7-6.92-2.1-1.55-1.4-2.33-3.46-2.33-6.18v-25.93Z"/>
    <path class="st1" d="M449.42,84.09v-27.29h9.81v27.29h-9.81ZM454.3,54.01c-1.33,0-2.47-.44-3.42-1.32-.94-.88-1.42-1.94-1.42-3.17s.47-2.32,1.42-3.19c.94-.87,2.08-1.31,3.42-1.31s2.47.44,3.42,1.31c.94.87,1.42,1.93,1.42,3.19s-.47,2.29-1.42,3.17c-.94.88-2.08,1.32-3.42,1.32Z"/>
    <path class="st1" d="M480.18,56.8v7.13h-17.97v-7.13h17.97ZM465.68,50.3h9.81v25.02c0,.57.15,1,.44,1.28.29.28.76.43,1.42.43.29,0,.72-.04,1.28-.11.56-.07.93-.14,1.11-.21l1.17,7.01c-1.12.31-2.18.52-3.17.62-.99.11-1.93.16-2.81.16-3.06,0-5.37-.7-6.92-2.1-1.55-1.4-2.33-3.46-2.33-6.18v-25.93Z"/>
    <path class="st1" d="M494.24,47.71v36.38h-9.81v-36.38h9.81Z"/>
    <path class="st1" d="M512.31,84.58c-2.91,0-5.42-.56-7.53-1.67-2.11-1.12-3.72-2.72-4.85-4.82s-1.68-4.62-1.68-7.57.57-5.28,1.7-7.38c1.13-2.11,2.73-3.75,4.8-4.92,2.07-1.17,4.51-1.76,7.32-1.76,2.07,0,3.93.32,5.6.96,1.67.64,3.1,1.57,4.28,2.78,1.19,1.21,2.1,2.68,2.73,4.41.63,1.73.95,3.68.95,5.86v2.25h-24.37v-5.37h19.78l-4.59,1.12c0-1.11-.16-2.04-.49-2.79-.33-.76-.81-1.33-1.44-1.73-.63-.4-1.42-.6-2.37-.6s-1.73.2-2.37.6c-.63.4-1.12.98-1.44,1.73-.33.76-.49,1.69-.49,2.79v3.91c0,1.21.19,2.2.57,2.99.38.79.92,1.38,1.62,1.76.7.38,1.51.57,2.44.57.67,0,1.27-.09,1.82-.28.55-.19,1.01-.46,1.4-.8.39-.35.68-.78.88-1.28l8.64,1.27c-.46,1.63-1.26,3.04-2.42,4.24-1.16,1.2-2.62,2.12-4.38,2.77-1.77.65-3.81.98-6.14.98Z"/>
    <path class="st1" d="M529.55,84.09v-27.29h9.52v5.22h.29c.49-1.94,1.27-3.35,2.36-4.24,1.08-.89,2.35-1.33,3.8-1.33.42,0,.85.03,1.27.1.42.07.83.16,1.22.29v8.35c-.49-.18-1.09-.3-1.79-.38-.71-.07-1.31-.11-1.82-.11-.96,0-1.82.22-2.59.65-.77.43-1.36,1.03-1.79,1.81-.43.77-.65,1.68-.65,2.72v14.21h-9.81Z"/>
  </g>
</svg>