<svg xmlns="http://www.w3.org/2000/svg" id="Layer_1" data-name="Layer 1" viewBox="0 0 1000 1000"><defs><style>      .cls-1 {        fill: #ef7b7b;      }    </style></defs><rect class="cls-1" width="1004.66" height="1004.66"></rect><g><path d="M301.35,485.31c-11.44-10.62-24.78-15.93-40.02-15.93-14.16,0-25.77,4.72-34.85,14.16-9.08,9.44-14.97,21.6-17.7,36.48-.91,4.9-1.36,9.26-1.36,13.07,0,9.08,2.18,15.7,6.53,19.87,3.27,3.09,6.85,5.22,10.75,6.4,3.9,1.18,8.39,1.77,13.48,1.77l9.8-.27c4.72-.36,8.44-.54,11.16-.54,13.61,0,24.73,3.54,33.35,10.62,8.62,7.08,12.93,16.25,12.93,27.5s-4.18,21.15-12.52,28.04c-8.35,6.9-19.6,10.35-33.76,10.35-7.99,0-15.34-1.68-22.05-5.04-6.72-3.36-12.03-7.98-15.93-13.89-3.9-5.9-5.85-12.39-5.85-19.47,0-5.08.82-9.07,2.45-11.98,1.63-2.9,4.72-6.9,9.26-11.98-17.42-4.36-27.86-9.62-31.31-15.79-4.36-7.98-6.53-17.6-6.53-28.86,0-4.36.18-7.62.54-9.8,1.81-12.52,5.85-23.78,12.12-33.76,6.26-9.98,14.47-17.83,24.64-23.55,10.16-5.72,21.78-8.58,34.85-8.58,16.15,0,30.81,4.45,43.97,13.34,13.16,8.9,23.1,20.79,29.81,35.67l-11.43,23.14c-3.45-16.7-10.89-30.36-22.33-40.98ZM257.93,650.7c5.35-4.18,11.57-6.26,18.65-6.26,9.98,0,18.6,3.36,25.86,10.07,3.27-3.09,7.03-5.54,11.3-7.35,4.26-1.82,8.75-2.72,13.48-2.72,9.62,0,17.6,3.04,23.96,9.12,6.35,6.08,9.53,13.84,9.53,23.28,0,8.53-2.95,15.79-8.85,21.78-5.9,5.99-13.39,8.98-22.46,8.98-10.53,0-19.33-3.36-26.41-10.07-6.72,6.71-14.97,10.07-24.78,10.07-8.17,0-15.25-1.95-21.24-5.85-5.99-3.91-9.8-9.3-11.44-16.2l-43.56-26.14,4.9-9.8c16.15,4.53,29.4,10.25,39.75,17.15,2.18-6.53,5.94-11.89,11.3-16.06ZM221.04,572.84l.54-1.63,9.53,2.99-6.81,3.81-1.09-1.63-2.18-3.54ZM241.18,616.4c4.72,4.72,10.71,7.08,17.97,7.08,8.35,0,15.2-2.31,20.56-6.94,5.35-4.63,8.03-10.66,8.03-18.11s-2.68-13.2-8.03-17.83c-5.36-4.63-12.21-6.94-20.56-6.94-7.26,0-13.25,2.31-17.97,6.94-4.72,4.63-7.08,10.58-7.08,17.83s2.36,13.25,7.08,17.97ZM291.28,689.36c3.27-3.45,4.9-7.72,4.9-12.8s-1.63-8.98-4.9-12.25-7.53-4.9-12.8-4.9c-4.54,0-8.62,1.27-12.25,3.81-3.63,2.54-5.9,5.72-6.81,9.53l-.54,3.27v.54c0,5.08,1.91,9.35,5.72,12.8,3.81,3.45,8.44,5.17,13.89,5.17s9.53-1.73,12.8-5.17ZM341.51,689.36c3.54-3.45,5.31-7.72,5.31-12.8,0-4.72-1.91-8.76-5.72-12.12-3.81-3.36-8.44-5.04-13.89-5.04s-9.53,1.63-12.8,4.9-4.9,7.35-4.9,12.25,1.77,9.35,5.31,12.8c3.54,3.45,7.94,5.17,13.2,5.17s9.94-1.73,13.48-5.17ZM323.41,476.46h1.63l-.54,10.07-5.44-5.72,1.36-1.36,2.99-2.99ZM339.74,460.94v190.31h-17.15l-1.36-143.75,1.63-20.15,1.36-26.41h15.52Z"></path><path d="M519.16,515.66h-17.15l-.27-9.53c-.18-5.08-2.5-10.52-6.94-16.34-4.45-5.81-10.35-10.71-17.7-14.7-7.35-3.99-15.11-5.99-23.28-5.99-18.33,0-32.31,4.04-41.93,12.12-9.62,8.08-14.43,20.28-14.43,36.62,0,4.18,1.31,7.4,3.95,9.67,2.63,2.27,6.13,3.4,10.48,3.4,3.45,0,6.44-.36,8.98-1.09,2.54-.72,6.62-2.27,12.25-4.63l5.72,11.16-10.62,6.26c-3.09,1.27-6.99,1.91-11.71,1.91l-10.35-.27c-8.35,0-15.07-2.36-20.15-7.08-5.08-4.72-7.62-11.16-7.62-19.33,0-20.51,6.71-36.3,20.15-47.37,13.43-11.07,31.85-16.61,55.27-16.61,11.8,0,22.69,2.72,32.67,8.17,9.98,5.44,17.92,12.3,23.82,20.56,5.9,8.26,8.85,16.11,8.85,23.55v9.53ZM433.13,539.89c-8.71,5.27-15.25,9.44-19.6,12.52-4.36,3.09-7.9,6.53-10.62,10.35-2.72,3.81-4.27,8.35-4.63,13.61-.73,13.43,3.4,24.09,12.39,31.99s21.55,11.84,37.71,11.84c14.16,0,26.32-4.81,36.48-14.43,10.16-9.62,16.88-22.6,20.15-38.93l11.43,21.78c-6.72,14.89-15.97,26.64-27.77,35.26-11.8,8.62-24.41,12.93-37.84,12.93-14.34,0-26.82-2.49-37.44-7.49-10.62-4.99-18.79-12.12-24.5-21.37s-8.58-20.05-8.58-32.4c0-6.17,1.77-12.34,5.31-18.51,3.54-6.17,8.39-11.43,14.57-15.79l-3.27-.82,35.12-7.9,6.81,3.81-5.72,3.54ZM497.92,615.85l-1.36-.54,5.17-10.89,1.91,9.26-1.63.82-4.08,1.36ZM519.98,460.94v171.25h-16.61l-2.18-37.57,2.18-7.35-1.63-89.3v-14.97l2.45-22.05h15.79Z"></path><path d="M570.89,460.94v171.25h-16.88v-171.25h16.88Z"></path><path d="M754.66,546.43c0-13.43-3.09-26.09-9.26-37.98-6.17-11.89-14.93-21.46-26.27-28.72-11.35-7.26-24.28-10.89-38.8-10.89-11.43,0-21.6,2.63-30.49,7.9-8.89,5.27-15.79,11.98-20.69,20.15-4.9,8.17-7.35,16.34-7.35,24.5,0,9.62,3.17,17.52,9.53,23.69,6.35,6.17,15.52,9.26,27.5,9.26h7.62v15.25h-7.62c-11.8,0-21.92-2.18-30.36-6.53-8.44-4.36-14.84-10.21-19.19-17.56-4.36-7.35-6.53-15.38-6.53-24.1,0-10.35,3.22-20.78,9.67-31.31,6.44-10.52,15.56-19.24,27.36-26.14,11.8-6.9,25.32-10.35,40.57-10.35,18.51,0,34.85,4.4,49.01,13.2,14.16,8.81,25.09,20.38,32.81,34.71,7.71,14.34,11.57,29.31,11.57,44.92,0,7.81-.54,15.52-1.63,23.14l-19.06-2.18c1.09-6.9,1.63-13.89,1.63-20.96ZM682.38,612.04c-6.44,3.99-13.84,5.99-22.19,5.99-7.26,0-14.02-1.45-20.28-4.36-6.26-2.9-11.26-6.81-14.97-11.71-3.72-4.9-5.58-10.25-5.58-16.06s1.86-11.43,5.58-16.34c3.72-4.9,8.71-8.75,14.97-11.57,6.26-2.81,13.02-4.22,20.28-4.22,8.35,0,15.79,1.95,22.33,5.85,6.53,3.91,11.07,8.94,13.61,15.11v22.05c-2.72,6.17-7.31,11.26-13.75,15.25ZM673.26,597.48c3.45-3.17,5.17-7.03,5.17-11.57s-1.73-8.39-5.17-11.57c-3.45-3.17-7.72-4.76-12.8-4.76-6.17,0-11.26,1.54-15.25,4.63-4,3.09-5.99,6.99-5.99,11.71s2,8.62,5.99,11.71c3.99,3.09,9.07,4.63,15.25,4.63,5.08,0,9.35-1.59,12.8-4.76ZM711.38,572.84c-1.27-1.81-3.27-2.72-5.99-2.72s-4.72.91-5.99,2.72c-1.27,1.82-1.91,4.27-1.91,7.35l-.54,56.36h-19.06l.54-56.36c0-7.26,2.36-13.29,7.08-18.1,4.72-4.81,11.34-7.21,19.88-7.21s14.7,2.36,19.6,7.08c4.9,4.72,7.35,10.8,7.35,18.24l-.54,56.36h-19.06l.54-56.36c0-3.08-.64-5.53-1.91-7.35Z"></path><path d="M963.08,587c2.27-14.34,3.31-26.86,3.13-37.57-.18-12.34-3.4-24.64-9.67-36.89s-15.02-22.28-26.27-30.08c-11.26-7.8-23.96-11.71-38.12-11.71-19.6,0-35.12,4.49-46.56,13.48-11.44,8.98-17.15,21.1-17.15,36.35s4.08,25.14,12.25,30.77c3.63,2.54,7.03,4.72,10.21,6.53,3.17,1.82,7.49,3.81,12.93,5.99l-11.44,10.89c-6.72-2.36-14.34-6.17-22.87-11.43-5.63-3.45-10.26-9.16-13.89-17.15-3.63-7.98-5.44-16.51-5.44-25.59,0-12.89,3.49-24.41,10.48-34.58,6.99-10.16,16.7-18.06,29.13-23.69,12.43-5.62,26.54-8.44,42.34-8.44,16.88,0,32.17,4.04,45.88,12.12,13.7,8.08,24.64,19.38,32.81,33.9,8.17,14.52,12.7,31.04,13.61,49.55.72,15.25-.46,30.49-3.54,45.74-3.09,15.25-7.35,27.23-12.8,35.94l-14.97-7.62c4.36-9.98,7.67-22.14,9.94-36.48ZM878.54,631.92l-.82-52.27c-1.09-2-2.5-3.54-4.22-4.63-1.73-1.09-3.5-1.63-5.31-1.63-2.36,0-4.63.77-6.81,2.31-2.18,1.54-3.91,3.59-5.17,6.13-1.46,3.45-2.18,10.8-2.18,22.05,0,8.9.36,18.33,1.09,28.31l-15.25,1.63-1.09-8.71c-1.82-12.34-2.72-21.96-2.72-28.86,0-7.8,1.18-14.43,3.54-19.88,2.36-5.81,6.26-10.16,11.71-13.07,5.45-2.9,11.07-4.36,16.88-4.36s11.34,2.14,16.06,6.4c4.72,4.27,8.07,8.4,10.07,12.39l-.82,54.18h-14.97ZM887.8,565.35c4.72-4.26,10.07-6.4,16.06-6.4s11.44,1.46,16.88,4.36c5.44,2.91,9.35,7.26,11.71,13.07,2.36,5.45,3.54,12.07,3.54,19.88,0,6.9-.91,16.52-2.72,28.86l-1.09,8.71-15.25-1.63c.72-9.98,1.09-19.42,1.09-28.31,0-11.25-.73-18.6-2.18-22.05-1.27-2.54-2.99-4.58-5.17-6.13-2.18-1.54-4.45-2.31-6.81-2.31-1.82,0-3.59.54-5.31,1.63-1.73,1.09-3.13,2.63-4.22,4.63l-16.61-1.91c2-3.99,5.35-8.12,10.07-12.39ZM895.15,453.86v16.88h-8.71v-16.88h8.71Z"></path><path d="M475.05,899.98v17.97H170.12v-17.97h304.93Z"></path><path d="M699.55,899.98v17.97h-304.93v-17.97h304.93Z"></path><path d="M714.17,817.22c2.63-6.9,6.4-12.89,11.3-17.97,5.81-5.81,12.7-9.98,20.69-12.52,5.08-1.63,10.44-2.45,16.06-2.45,8.35,0,16.06,1.82,23.14,5.45,10.52,5.08,17.88,12.8,22.05,23.14,2,5.27,3,10.8,3,16.61,0,11.8-4.08,23.41-12.25,34.85-10.53,14.52-24.5,24.96-41.93,31.31,2.54,3.63,5.45,7.17,8.71,10.62,10.71,11.8,26.14,24.6,46.28,38.39,12.52,8.35,25.23,16.34,38.12,23.96l-9.26,16.06-7.9-4.63c-13.43-7.8-26.59-16.06-39.48-24.78-21.42-14.7-38.03-28.49-49.82-41.38-16.33-18.15-26.59-37.21-30.76-57.17-1.27-5.81-1.91-11.43-1.91-16.88,0-8.17,1.31-15.7,3.95-22.6ZM785.36,828.11c0-3.63-.82-7.44-2.45-11.43-2.72-6.9-7.08-11.8-13.07-14.7-2.54-1.27-4.9-1.91-7.08-1.91-5.63,0-10.89,2.45-15.79,7.35-3.63,3.63-6.49,8.21-8.58,13.75-2.09,5.54-3.13,11.75-3.13,18.65,0,13.25,3.81,26.86,11.44,40.84,11.61-4.9,21.14-12.52,28.59-22.87,4.54-6.53,7.53-13.16,8.98-19.88.72-2.9,1.09-6.17,1.09-9.8Z"></path><path d="M894.27,840.36c-2.18,5.27-3.81,10.71-4.9,16.33-1.09,5.63-1.63,11.26-1.63,16.88s.63,11.07,1.91,16.34c1.09,5.63,2.81,10.89,5.17,15.79,2.54,5.27,5.81,10.35,9.8,15.25,3.99,5.08,8.89,10.17,14.7,15.25,8.35,7.08,17.29,13.34,26.82,18.79,9.53,5.45,19.47,9.8,29.81,13.07l-5.17,15.79-6.26-1.91c-13.07-4.17-24.6-9.16-34.58-14.97-11.62-6.71-21.96-13.97-31.04-21.78-6.53-5.62-12.16-11.34-16.88-17.15-4.54-5.62-8.26-11.52-11.16-17.7-2.72-5.62-4.81-11.61-6.26-17.97-1.27-6.17-1.91-12.43-1.91-18.79,0-3.45.18-7.08.54-10.89.54-4.17,1.27-8.17,2.18-11.98.91-3.99,2.08-8.07,3.54-12.25,1.45-3.81,3.36-7.98,5.72-12.52l1.09-1.91,2.72-1.36,4.36-2.45,6.53-3.27,7.35,2.45,3.54,1.09,2.45.82,55,45.47v-76.78h16.61v105.36h-13.07l-66.98-55Z"></path></g></svg>