<?xml version="1.0" encoding="UTF-8"?>
<svg xmlns="http://www.w3.org/2000/svg" width="86" height="52" viewBox="0 0 86 52" fill="none">
  <g clip-path="url(#clip0_823_286)">
    <path fill-rule="evenodd" clip-rule="evenodd" d="M13.266 11.617H64.1701C70.2805 11.617 75.2339 16.5704 75.2339 22.6808V38.851C75.2339 44.9614 70.2805 49.9149 64.1701 49.9149H55.3424H25.817H2.20215V22.6808C2.20215 16.5704 7.15559 11.617 13.266 11.617Z" fill="#119656" stroke="#073F24" stroke-width="3.87234"></path>
    <path fill-rule="evenodd" clip-rule="evenodd" d="M72.4679 39.2766H22.6807C16.5703 39.2766 11.6169 34.3232 11.6169 28.2128V13C11.6169 6.88963 16.5703 1.93618 22.6807 1.93618H31.2041H60.2781H83.5317V28.2128C83.5317 34.3232 78.5783 39.2766 72.4679 39.2766Z" fill="white" stroke="#073F24" stroke-width="3.87234"></path>
    <path d="M26.0865 32.3617C27.9724 32.3617 29.2773 31.5119 30.0012 29.8124C30.1645 31.0916 31.2532 32.0501 32.5428 32.0501H33.03V20.1678H29.2297V23.0424V23.8042C29.2297 24.7106 29.2297 26.0702 29.2297 27.8831C28.1692 27.8831 27.3216 27.8831 26.6866 27.8831C25.7151 27.8831 25.0531 27.5621 24.7007 26.92C24.3483 26.278 24.1721 25.3054 24.1721 24.0024V16.854C24.1721 16.0042 24.2245 15.315 24.3292 14.7862C24.434 14.2575 24.6578 13.8231 25.0007 13.4832C25.3436 13.1433 25.8675 12.9734 26.5723 12.9734C27.239 12.9734 27.739 13.1055 28.0724 13.3699C28.4058 13.6343 28.6932 13.9325 28.8668 14.3689C29.0405 14.8052 29.2297 15.6549 29.2297 16.4858V17.3339H32.9157V15.536C32.9157 13.3266 32.4204 11.6601 31.4298 10.5365C30.4393 9.41287 28.801 8.85107 26.5151 8.85107C24.0959 8.85107 22.391 9.51674 21.4004 10.8481C20.4098 12.1794 19.9146 14.1575 19.9146 16.7824V24.4871C19.9146 27.0364 20.3955 28.9862 21.3575 30.3364C22.3195 31.6866 23.8959 32.3617 26.0865 32.3617ZM40.3068 30.1214V11.872C40.3068 10.3444 39.0685 9.10601 37.5409 9.10601H36.4493V30.1214C36.4493 31.1866 37.3129 32.0501 38.3781 32.0501C39.4433 32.0501 40.3068 31.1866 40.3068 30.1214ZM47.5187 11.4712C47.5187 10.5873 46.8022 9.87081 45.9183 9.87081H45.2331C44.3492 9.87081 43.6326 10.5873 43.6326 11.4712C43.6326 12.3551 44.3492 13.0717 45.2331 13.0717H45.9183C46.8022 13.0717 47.5187 12.3551 47.5187 11.4712ZM47.6122 30.1071V18.4436C47.6122 16.916 46.3739 15.6777 44.8463 15.6777H43.7262V30.1071C43.7262 31.1802 44.5961 32.0501 45.6692 32.0501C46.7423 32.0501 47.6122 31.1802 47.6122 30.1071ZM54.9176 30.1071V18.3686H58.2894V30.1214C58.2894 31.1866 59.1529 32.0501 60.2181 32.0501C61.2833 32.0501 62.1468 31.1866 62.1468 30.1214V18.4436C62.1468 16.916 60.9085 15.6777 59.3809 15.6777H54.9176V14.318C54.9176 13.6759 55.0129 13.2227 55.2034 12.9584C55.3939 12.694 55.7177 12.5618 56.1749 12.5618C56.4987 12.5618 56.7845 12.5996 57.0321 12.6751V9.92747C56.3082 9.83304 55.6986 9.78583 55.2034 9.78583C53.6604 9.78583 52.5793 10.1871 51.9602 10.9897C51.3411 11.7923 51.0316 13.0056 51.0316 14.6296V15.6777V18.3686V30.1071C51.0316 31.1802 51.9015 32.0501 52.9746 32.0501C54.0477 32.0501 54.9176 31.1802 54.9176 30.1071ZM62.1754 11.4712C62.1754 10.5873 61.4589 9.87081 60.575 9.87081H60.1755C59.2916 9.87081 58.5751 10.5873 58.5751 11.4712C58.5751 12.3551 59.2916 13.0717 60.1755 13.0717H60.575C61.4589 13.0717 62.1754 12.3551 62.1754 11.4712ZM70.1761 32.3051C71.9096 32.3051 73.1859 31.8707 74.005 31.0021C74.8241 30.1334 75.2337 28.8587 75.2337 27.178V24.985H71.5762V27.3763C71.5762 27.8925 71.5762 28.629 71.5762 29.5858C71.0175 29.5858 70.5603 29.5858 70.2047 29.5858C69.6904 29.5858 69.3237 29.3969 69.1046 29.0192C68.8855 28.6416 68.776 27.9428 68.776 26.9231V20.918C68.776 19.8605 68.876 19.1334 69.076 18.7369C69.276 18.3403 69.6523 18.142 70.2047 18.142C70.719 18.142 71.0762 18.3025 71.2762 18.6236C71.4762 18.9446 71.5762 19.53 71.5762 20.3798V22.1487H75.2337V20.4648C75.2337 18.7652 74.8289 17.5 74.0193 16.6691C73.2097 15.8382 71.9286 15.4227 70.1761 15.4227C68.3283 15.4227 66.9854 15.9326 66.1472 16.9523C65.309 17.9721 64.8899 19.4545 64.8899 21.3995V26.3283C64.8899 28.2544 65.309 29.7321 66.1472 30.7613C66.9854 31.7905 68.3283 32.3051 70.1761 32.3051Z" fill="#073F24"></path>
  </g>
  <defs>
    <clipPath id="clip0_823_286">
      <rect width="85.4681" height="52" fill="white"></rect>
    </clipPath>
  </defs>
</svg>
