<svg width="52" height="40" viewBox="0 0 52 40" fill="none" xmlns="http://www.w3.org/2000/svg">
<path d="M10.0655 20.6463H7.01025V5.69092H14.5236V8.7462H10.0655V11.635H14.5236V14.6903H10.0655V20.6463Z" fill="white"/>
<path d="M18.9818 17.5792H21.8706V8.74624H18.9818V17.5792ZM17.4125 20.6464V19.1485H15.9265V7.177H17.4125V5.69096H23.4399V7.177H24.9259V19.1485H23.4399V20.6464H17.4125ZM16.0097 5.73852H17.4125V7.177H16.0097V5.73852ZM23.4399 5.69092H24.9259V7.17695H23.4399V5.69092ZM23.4399 19.1484H24.9259V20.5988H23.4399V19.1484ZM15.9265 19.1484H17.4125V20.6463H15.9265V19.1484Z" fill="white"/>
<path d="M33.8422 20.6463H26.3289V17.5792H32.273V14.6903H27.8149V13.2043H26.3289V7.17695H27.8149V5.69092H35.3283V8.7462H29.3841V11.635H33.8422V13.1211H35.3283V19.1484H33.8422V20.6463ZM26.4121 5.73848H27.8149V7.17695H26.4121V5.73848ZM26.3289 13.2043H27.8149V14.6903H26.3289V13.2043ZM33.8422 11.635H35.3283V13.1211H33.8422V11.635ZM33.8422 19.1484H35.3283V20.5988H33.8422V19.1484Z" fill="white"/>
<path d="M44.2443 20.6463H36.731V17.5792H42.6751V14.6903H38.217V13.2043H36.731V7.17695H38.217V5.69092H45.7304V8.7462H39.7862V11.635H44.2443V13.1211H45.7304V19.1484H44.2443V20.6463ZM36.8142 5.73848H38.217V7.17695H36.8142V5.73848ZM36.731 13.2043H38.217V14.6903H36.731V13.2043ZM44.2443 11.635H45.7304V13.1211H44.2443V11.635ZM44.2443 19.1484H45.7304V20.5988H44.2443V19.1484Z" fill="white"/>
<path d="M8.08345 34.3092V33.2249H7.00952V23.4834H9.21751V32.089H11.3052V23.4834H13.5132V33.2249H12.4393V34.3092H8.08345ZM7.00952 33.2249H8.08345V34.3092H7.00952V33.2249ZM12.4393 33.2249H13.5132V34.2748H12.4393V33.2249Z" fill="white"/>
<path d="M16.7351 34.3092H14.5271V23.4834H21.0308V34.3092H18.8228V25.695H16.7351V34.3092Z" fill="white"/>
<path d="M24.2524 34.3092H22.0444V23.4834H24.2524V34.3092Z" fill="white"/>
<path d="M29.6222 34.3092H27.4142V25.695H25.2664V23.4834H31.7701V25.695H29.6222V34.3092Z" fill="white"/>
<path d="M38.2135 34.3092H32.7837V23.4834H38.2135V25.695H34.9917V27.7862H38.2135V29.9978H34.9917V32.089H38.2135V34.3092Z" fill="white"/>
<path d="M41.4353 32.089H43.523V25.695H41.4353V32.089ZM39.2273 34.3092V23.4834H44.6571V24.5591H45.731V33.2249H44.6571V34.3092H39.2273Z" fill="white"/>
<path fill-rule="evenodd" clip-rule="evenodd" d="M0.740967 0H51.9999V40H0.740967V0ZM2.73853 1.99757V38.0024H50.0024V1.99757H2.73853Z" fill="white"/>
</svg>
