<svg width="122" height="16" viewBox="0 0 122 16" fill="none" xmlns="http://www.w3.org/2000/svg">
<g clip-path="url(#clip0_95_321)">
<path d="M98.3326 16.0001C97.2098 16.0001 96.2273 15.7489 95.3852 15.2466C94.5431 14.7295 93.8783 14.0056 93.3908 13.0749C92.918 12.1441 92.6816 11.0508 92.6816 9.79507C92.6816 8.56885 92.918 7.49036 93.3908 6.55962C93.8635 5.62887 94.521 4.90495 95.3631 4.38787C96.2052 3.85602 97.1803 3.59009 98.2883 3.59009C99.3815 3.59009 100.342 3.84863 101.169 4.36571C102.011 4.88279 102.669 5.61409 103.141 6.55962C103.614 7.49036 103.851 8.59101 103.851 9.86155V10.615H95.7841C95.858 11.5014 96.1239 12.181 96.5819 12.6538C97.0547 13.1118 97.6604 13.3408 98.3991 13.3408C98.9457 13.3408 99.4111 13.2152 99.7952 12.964C100.179 12.6981 100.445 12.3435 100.593 11.9003L103.607 12.0998C103.208 13.3408 102.558 14.3011 101.657 14.9807C100.77 15.6603 99.6622 16.0001 98.3326 16.0001ZM95.8285 8.55408H100.637C100.563 7.78584 100.312 7.20966 99.8839 6.82555C99.4554 6.44143 98.9162 6.24937 98.2661 6.24937C97.5865 6.24937 97.0325 6.44881 96.6041 6.84771C96.1904 7.23182 95.9319 7.80061 95.8285 8.55408Z" fill="#18222A"/>
<path d="M79.9033 15.7341V13.3407H82.7399V6.24931H79.9033V3.85596H84.956L85.1332 6.16067C85.3253 5.39243 85.6503 4.81625 86.1083 4.43213C86.5663 4.04802 87.2016 3.85596 88.0141 3.85596H90.6734V6.31579H88.2357C86.5811 6.31579 85.7537 7.18006 85.7537 8.90859V13.3407H89.3659V15.7341H79.9033Z" fill="#18222A"/>
<path d="M71.6684 16.0001C70.5456 16.0001 69.5631 15.7489 68.721 15.2466C67.8789 14.7295 67.2215 14.0056 66.7487 13.0749C66.2759 12.1441 66.0396 11.0508 66.0396 9.79507C66.0396 8.5393 66.2759 7.44604 66.7487 6.5153C67.2215 5.58455 67.8789 4.86802 68.721 4.36571C69.5631 3.84863 70.5456 3.59009 71.6684 3.59009C72.7912 3.59009 73.7736 3.84863 74.6157 4.36571C75.4578 4.86802 76.1153 5.58455 76.588 6.5153C77.0608 7.44604 77.2972 8.5393 77.2972 9.79507C77.2972 11.0508 77.0608 12.1441 76.588 13.0749C76.1153 14.0056 75.4578 14.7295 74.6157 15.2466C73.7736 15.7489 72.7912 16.0001 71.6684 16.0001ZM71.6684 13.3408C72.4661 13.3408 73.0793 13.0379 73.5077 12.4322C73.9509 11.8117 74.1725 10.9327 74.1725 9.79507C74.1725 8.65749 73.9509 7.78584 73.5077 7.18012C73.0793 6.55962 72.4661 6.24937 71.6684 6.24937C70.8558 6.24937 70.2353 6.55962 69.8069 7.18012C69.3784 7.78584 69.1642 8.65749 69.1642 9.79507C69.1642 10.9327 69.3784 11.8117 69.8069 12.4322C70.2353 13.0379 70.8558 13.3408 71.6684 13.3408Z" fill="#18222A"/>
<path d="M52.7964 15.7341V13.3407H57.1842V3.76731C57.1842 2.85134 56.7262 2.39335 55.8102 2.39335H53.2396V0H56.3421C58.9127 0 60.198 1.27793 60.198 3.8338V13.3407H63.9654V15.7341H52.7964Z" fill="#18222A"/>
<path d="M39.7749 15.7341V0H42.7888V9.04155L47.3095 3.85596H50.8774L46.3566 8.93075L51.0768 15.7341H47.6419L44.3843 10.8809L42.7888 12.6316V15.7341H39.7749Z" fill="#18222A"/>
<path d="M26.7529 15.7341V13.3407H29.5895V6.24931H26.7529V3.85596H31.8056L31.9828 6.16067C32.1749 5.39243 32.4999 4.81625 32.9579 4.43213C33.4159 4.04802 34.0512 3.85596 34.8637 3.85596H37.523V6.31579H35.0853C33.4307 6.31579 32.6033 7.18006 32.6033 8.90859V13.3407H36.2155V15.7341H26.7529Z" fill="#18222A"/>
<path d="M18.5175 16.0001C17.3947 16.0001 16.4122 15.7489 15.5701 15.2466C14.728 14.7295 14.0706 14.0056 13.5978 13.0749C13.1251 12.1441 12.8887 11.0508 12.8887 9.79507C12.8887 8.5393 13.1251 7.44604 13.5978 6.5153C14.0706 5.58455 14.728 4.86802 15.5701 4.36571C16.4122 3.84863 17.3947 3.59009 18.5175 3.59009C19.6403 3.59009 20.6227 3.84863 21.4648 4.36571C22.307 4.86802 22.9644 5.58455 23.4371 6.5153C23.9099 7.44604 24.1463 8.5393 24.1463 9.79507C24.1463 11.0508 23.9099 12.1441 23.4371 13.0749C22.9644 14.0056 22.307 14.7295 21.4648 15.2466C20.6227 15.7489 19.6403 16.0001 18.5175 16.0001ZM18.5175 13.3408C19.3153 13.3408 19.9284 13.0379 20.3568 12.4322C20.8 11.8117 21.0216 10.9327 21.0216 9.79507C21.0216 8.65749 20.8 7.78584 20.3568 7.18012C19.9284 6.55962 19.3153 6.24937 18.5175 6.24937C17.7049 6.24937 17.0844 6.55962 16.656 7.18012C16.2275 7.78584 16.0133 8.65749 16.0133 9.79507C16.0133 10.9327 16.2275 11.8117 16.656 12.4322C17.0844 13.0379 17.7049 13.3408 18.5175 13.3408Z" fill="#18222A"/>
<path d="M2.99169 15.7341V6.24931H0V3.85596H2.99169V3.52355C2.99169 2.32687 3.27239 1.44044 3.83379 0.864267C4.40997 0.288089 5.31117 0 6.5374 0H10.4598V2.39335H7.22438C6.39704 2.39335 5.98338 2.77747 5.98338 3.54571V3.85596H10.3712V6.24931H5.98338V15.7341H2.99169Z" fill="#18222A"/>
<rect x="110.349" y="12.3618" width="11.5621" height="3.37227" fill="#18222A"/>
</g>
<defs>
<clipPath id="clip0_95_321">
<rect width="121.911" height="16" fill="white"/>
</clipPath>
</defs>
</svg>
