<svg width="254" height="34" viewBox="0 0 254 34" fill="none" xmlns="http://www.w3.org/2000/svg">
<g clip-path="url(#clip0_95_309)">
<path d="M204.114 33.2119C201.783 33.2119 199.744 32.6906 197.996 31.6479C196.248 30.5746 194.868 29.0719 193.856 27.1399C192.875 25.2079 192.384 22.9386 192.384 20.3319C192.384 17.7866 192.875 15.5479 193.856 13.6159C194.837 11.6839 196.202 10.1812 197.95 9.1079C199.698 8.0039 201.722 7.4519 204.022 7.4519C206.291 7.4519 208.285 7.98857 210.002 9.06191C211.75 10.1352 213.115 11.6532 214.096 13.6159C215.077 15.5479 215.568 17.8326 215.568 20.4699V22.0339H198.824C198.977 23.8739 199.529 25.2846 200.48 26.2659C201.461 27.2166 202.719 27.6919 204.252 27.6919C205.387 27.6919 206.353 27.4312 207.15 26.9099C207.947 26.3579 208.499 25.6219 208.806 24.7019L215.062 25.1159C214.234 27.6919 212.885 29.6852 211.014 31.0959C209.174 32.5066 206.874 33.2119 204.114 33.2119ZM198.916 17.7559H208.898C208.745 16.1612 208.223 14.9652 207.334 14.1679C206.445 13.3706 205.325 12.9719 203.976 12.9719C202.565 12.9719 201.415 13.3859 200.526 14.2139C199.667 15.0112 199.131 16.1919 198.916 17.7559Z" fill="#FAFAFA"/>
<path d="M165.86 32.6599V27.6919H171.748V12.9719H165.86V8.00391H176.348L176.716 12.7879C177.115 11.1932 177.789 9.99724 178.74 9.1999C179.691 8.40257 181.009 8.00391 182.696 8.00391H188.216V13.1099H183.156C179.721 13.1099 178.004 14.9039 178.004 18.4919V27.6919H185.502V32.6599H165.86Z" fill="#FAFAFA"/>
<path d="M148.766 33.2119C146.435 33.2119 144.396 32.6906 142.648 31.6479C140.9 30.5746 139.535 29.0719 138.554 27.1399C137.573 25.2079 137.082 22.9386 137.082 20.3319C137.082 17.7252 137.573 15.4559 138.554 13.5239C139.535 11.5919 140.9 10.1046 142.648 9.06191C144.396 7.98857 146.435 7.4519 148.766 7.4519C151.097 7.4519 153.136 7.98857 154.884 9.06191C156.632 10.1046 157.997 11.5919 158.978 13.5239C159.959 15.4559 160.45 17.7252 160.45 20.3319C160.45 22.9386 159.959 25.2079 158.978 27.1399C157.997 29.0719 156.632 30.5746 154.884 31.6479C153.136 32.6906 151.097 33.2119 148.766 33.2119ZM148.766 27.6919C150.422 27.6919 151.695 27.0632 152.584 25.8059C153.504 24.5179 153.964 22.6932 153.964 20.3319C153.964 17.9706 153.504 16.1612 152.584 14.9039C151.695 13.6159 150.422 12.9719 148.766 12.9719C147.079 12.9719 145.791 13.6159 144.902 14.9039C144.013 16.1612 143.568 17.9706 143.568 20.3319C143.568 22.6932 144.013 24.5179 144.902 25.8059C145.791 27.0632 147.079 27.6919 148.766 27.6919Z" fill="#FAFAFA"/>
<path d="M109.592 32.66V27.692H118.7V7.82C118.7 5.91867 117.749 4.968 115.848 4.968H110.512V0H116.952C122.288 0 124.956 2.65267 124.956 7.958V27.692H132.776V32.66H109.592Z" fill="#FAFAFA"/>
<path d="M82.562 32.66V0H88.818V18.768L98.202 8.004H105.608L96.224 18.538L106.022 32.66H98.892L92.13 22.586L88.818 26.22V32.66H82.562Z" fill="#FAFAFA"/>
<path d="M55.532 32.6599V27.6919H61.42V12.9719H55.532V8.00391H66.02L66.388 12.7879C66.7866 11.1932 67.4613 9.99724 68.412 9.1999C69.3626 8.40257 70.6813 8.00391 72.368 8.00391H77.888V13.1099H72.828C69.3933 13.1099 67.676 14.9039 67.676 18.4919V27.6919H75.174V32.6599H55.532Z" fill="#FAFAFA"/>
<path d="M38.4379 33.2119C36.1072 33.2119 34.0679 32.6906 32.3199 31.6479C30.5719 30.5746 29.2072 29.0719 28.2259 27.1399C27.2446 25.2079 26.7539 22.9386 26.7539 20.3319C26.7539 17.7252 27.2446 15.4559 28.2259 13.5239C29.2072 11.5919 30.5719 10.1046 32.3199 9.06191C34.0679 7.98857 36.1072 7.4519 38.4379 7.4519C40.7686 7.4519 42.8079 7.98857 44.5559 9.06191C46.3039 10.1046 47.6686 11.5919 48.6499 13.5239C49.6312 15.4559 50.1219 17.7252 50.1219 20.3319C50.1219 22.9386 49.6312 25.2079 48.6499 27.1399C47.6686 29.0719 46.3039 30.5746 44.5559 31.6479C42.8079 32.6906 40.7686 33.2119 38.4379 33.2119ZM38.4379 27.6919C40.0939 27.6919 41.3666 27.0632 42.2559 25.8059C43.1759 24.5179 43.6359 22.6932 43.6359 20.3319C43.6359 17.9706 43.1759 16.1612 42.2559 14.9039C41.3666 13.6159 40.0939 12.9719 38.4379 12.9719C36.7512 12.9719 35.4632 13.6159 34.5739 14.9039C33.6846 16.1612 33.2399 17.9706 33.2399 20.3319C33.2399 22.6932 33.6846 24.5179 34.5739 25.8059C35.4632 27.0632 36.7512 27.6919 38.4379 27.6919Z" fill="#FAFAFA"/>
<path d="M6.21 32.66V12.972H0V8.004H6.21V7.314C6.21 4.83 6.79267 2.99 7.958 1.794C9.154 0.598001 11.0247 0 13.57 0H21.712V4.968H14.996C13.2787 4.968 12.42 5.76533 12.42 7.36V8.004H21.528V12.972H12.42V32.66H6.21Z" fill="#FAFAFA"/>
<rect x="229.056" y="25.6599" width="24" height="7" fill="#FAFAFA"/>
</g>
<defs>
<clipPath id="clip0_95_309">
<rect width="253.056" height="33.212" fill="white"/>
</clipPath>
</defs>
</svg>
