<svg width="64" height="65" viewBox="0 0 64 65" fill="none" xmlns="http://www.w3.org/2000/svg">
<g clip-path="url(#clip0_5_2)">
<path d="M61.6833 0.707031H2.00918C1.01752 0.707031 0.213623 1.51093 0.213623 2.50259V62.5381C0.213623 63.5298 1.01752 64.3337 2.00918 64.3337H61.6833C62.6749 64.3337 63.4788 63.5298 63.4788 62.5381V2.50259C63.4788 1.51093 62.6749 0.707031 61.6833 0.707031Z" fill="#18222A"/>
<path d="M62.8207 0.5H1.17926C0.527407 0.5 0 1.05111 0 1.72667V63.143C0 63.8185 0.527407 64.3696 1.17926 64.3696H62.8207C63.4726 64.3696 64 63.8185 64 63.143V1.72667C64 1.05111 63.4726 0.5 62.8207 0.5ZM61.6415 61.9163H2.35852V2.95333H61.6356V61.9163H61.6415Z" fill="white"/>
<path d="M5.94971 58.4672H9.91415V50.4316H15.7038V46.3131H9.91415V42.4198H15.7038V38.3013H5.94971V58.4672Z" fill="white"/>
<path d="M27.8935 40.3042H29.8194V38.3013H27.8935H20.0713V38.3665H18.252V40.3042H20.0713H18.1394V58.4672H27.8935V58.402H29.8194V56.4524V40.3102H27.8935V40.3042ZM25.855 54.3309H22.1038V42.4198H25.855V54.3309Z" fill="white"/>
<path d="M34.1807 38.3601H32.3614V40.2979H32.2488V48.4223V50.4253H34.1748H39.9585V54.3186H32.2429V58.4549H41.997V58.3897H43.9229V56.4342V48.3097V46.3068H41.997H36.2133V42.4134H43.9229V38.2949H34.1688V38.3542L34.1807 38.3601Z" fill="white"/>
<path d="M48.3025 38.3605H46.4832V40.3042H46.3706V48.4287V50.4316H48.3025V48.4287H48.3084V50.4316H54.0921V54.3309H46.3706V58.4672H56.1247V58.402H58.0506V56.4465V48.3161V46.3131H56.1247H50.341V42.4198H58.0506V38.3013H48.3025V38.3605Z" fill="white"/>
<path d="M7.10531 21.0033H12.7705V20.9559H14.1631V19.5396V6.40186H11.2949V18.0107H8.58086V6.40186H5.70679V19.5396V21.0033H7.10531Z" fill="white"/>
<path d="M18.8028 9.38852H21.5169V21.0033H24.385V6.40186H15.9287V21.0033H18.8028V9.38852Z" fill="white"/>
<path d="M29.0251 6.40186H26.157V21.0033H29.0251V6.40186Z" fill="white"/>
<path d="M33.5824 21.0033H36.4564V9.38852H39.2476V6.40186H30.7913V9.38852H33.5824V21.0033Z" fill="white"/>
<path d="M48.0712 18.0107H43.8816V15.19H48.0712V12.2093H43.8816V9.38852H48.0712V6.40186H41.0134V21.0033H48.0712V18.0107Z" fill="white"/>
<path d="M56.901 19.5405H58.2936V7.85462H56.901V6.40869H49.8433V21.0102H56.901V19.5465V19.5405ZM55.4255 18.0117H52.7114V9.38943H55.4255V18.0117Z" fill="white"/>
<path d="M58.1689 23.6523H5.45776V35.9131H58.1689V23.6523Z" fill="white"/>
<path d="M7.01025 34.355V25.312H11.7273V29.8039H12.6577V34.355H7.01025ZM8.93025 27.1609V28.909H9.81322V27.1609H8.93025ZM8.93025 32.5002H10.7436V30.752H8.93025V32.5002Z" fill="#18222A"/>
<path d="M17.3218 34.355H15.4018V30.752H13.5352V25.312H15.4552V28.9031H17.2685V25.312H19.1885V30.752H17.3218V34.355Z" fill="#18222A"/>
</g>
<defs>
<clipPath id="clip0_5_2">
<rect width="64" height="65" fill="white"/>
</clipPath>
</defs>
</svg>
